<?xml version="1.0" encoding="UTF-8" standalone="no"?>
<!-- Created with Inkscape (http://www.inkscape.org/) -->

<svg
   xmlns:dc="http://purl.org/dc/elements/1.1/"
   xmlns:cc="http://creativecommons.org/ns#"
   xmlns:rdf="http://www.w3.org/1999/02/22-rdf-syntax-ns#"
   xmlns:svg="http://www.w3.org/2000/svg"
   xmlns="http://www.w3.org/2000/svg"
   xmlns:sodipodi="http://sodipodi.sourceforge.net/DTD/sodipodi-0.dtd"
   xmlns:inkscape="http://www.inkscape.org/namespaces/inkscape"
   version="1.0"
   width="366"
   height="394"
   id="svg15005"
   inkscape:version="0.92.3 (2405546, 2018-03-11)"
   sodipodi:docname="complex_number_polar.svg"
   viewBox="0 0 366 394">
  <metadata
     id="metadata34">
    <rdf:RDF>
      <cc:Work
         rdf:about="">
        <dc:format>image/svg+xml</dc:format>
        <dc:type
           rdf:resource="http://purl.org/dc/dcmitype/StillImage" />
        <dc:title />
        <cc:license
           rdf:resource="http://creativecommons.org/licenses/by-sa/4.0/" />
      </cc:Work>
      <cc:License
         rdf:about="http://creativecommons.org/licenses/by-sa/4.0/">
        <cc:permits
           rdf:resource="http://creativecommons.org/ns#Reproduction" />
        <cc:permits
           rdf:resource="http://creativecommons.org/ns#Distribution" />
        <cc:requires
           rdf:resource="http://creativecommons.org/ns#Notice" />
        <cc:requires
           rdf:resource="http://creativecommons.org/ns#Attribution" />
        <cc:permits
           rdf:resource="http://creativecommons.org/ns#DerivativeWorks" />
        <cc:requires
           rdf:resource="http://creativecommons.org/ns#ShareAlike" />
      </cc:License>
    </rdf:RDF>
  </metadata>
  <sodipodi:namedview
     pagecolor="#000000"
     bordercolor="#666666"
     borderopacity="1"
     objecttolerance="10"
     gridtolerance="10"
     guidetolerance="10"
     inkscape:pageopacity="0"
     inkscape:pageshadow="2"
     inkscape:window-width="1305"
     inkscape:window-height="713"
     id="namedview32"
     showgrid="false"
     inkscape:zoom="0.84709243"
     inkscape:cx="173.04311"
     inkscape:cy="144.78226"
     inkscape:window-x="55"
     inkscape:window-y="27"
     inkscape:window-maximized="1"
     inkscape:current-layer="svg15005"
     showborder="false"
     inkscape:pagecheckerboard="false"
     scale-x="3" />
  <defs
     id="defs15007">
    <inkscape:perspective
       sodipodi:type="inkscape:persp3d"
       inkscape:vp_x="0 : 591 : 1"
       inkscape:vp_y="0 : 6000 : 0"
       inkscape:vp_z="1098 : 591 : 1"
       inkscape:persp3d-origin="549 : 394 : 1"
       id="perspective36" />
    <marker
       refX="0"
       refY="0"
       orient="auto"
       id="Arrow2Mendw"
       style="overflow:visible">
      <path
         d="M 8.7185878,4.0337352 -2.2072895,0.01601326 8.7185884,-4.0017078 c -1.7454984,2.3720609 -1.7354408,5.6174519 -6e-7,8.035443 z"
         transform="scale(-0.6)"
         id="path13603"
         style="font-size:12px;fill:#fa8535;fill-rule:evenodd;stroke:#fa8535;stroke-width:0.625;stroke-linejoin:round"
         inkscape:connector-curvature="0" />
    </marker>
    <marker
       refX="0"
       refY="0"
       orient="auto"
       id="marker2465U"
       style="overflow:visible">
      <path
         d="M 8.7185878,4.0337352 -2.2072895,0.01601326 8.7185884,-4.0017078 c -1.7454984,2.3720609 -1.7354408,5.6174519 -6e-7,8.035443 z"
         transform="scale(0.6)"
         id="path13600"
         style="font-size:12px;fill:#fa8535;fill-rule:evenodd;stroke:#fa8535;stroke-width:0.625;stroke-linejoin:round"
         inkscape:connector-curvature="0" />
    </marker>
  </defs>
  <g
     id="g909">
    <path
       inkscape:connector-curvature="0"
       d="M 52.337805,50.647097 41.43529,81.676522 c 0,0 0.471934,-0.313128 0.847545,-0.565644 0.375611,-0.252537 0.202249,-0.171702 0.654919,-0.444442 0.452669,-0.272721 0.712712,-0.414127 1.155739,-0.64644 0.443046,-0.232312 0.28893,-0.141406 0.616408,-0.282812 0.32746,-0.141406 0.28893,-0.11111 0.693448,-0.282812 0.404498,-0.171722 0.471915,-0.222221 0.924584,-0.404054 0.452669,-0.181814 0.375611,-0.181814 0.886074,-0.32322 0.510444,-0.141386 0.654918,-0.131314 1.155739,-0.242405 0.500821,-0.11111 0.365988,-0.121222 0.847545,-0.202017 0.481557,-0.08082 0.548973,-0.06061 1.0787,-0.121222 0.529709,-0.06059 0.548973,-0.100999 1.040152,-0.121203 0.491199,-0.0202 0.41416,0.03032 0.924603,0.04041 0.510444,0.01017 0.664561,-0.01017 1.117211,0 0.452669,0.01017 0.346724,0.01017 0.693447,0.04041 0.346724,0.0303 0.298572,0.0303 0.693448,0.08079 0.394875,0.05052 0.356365,0.0303 0.886074,0.121202 0.529708,0.09091 0.809015,0.121243 1.232797,0.242425 0.423763,0.121202 0.972736,0.252517 1.69509,0.525257 0.722335,0.2727 0.683806,0.313108 1.194269,0.565624 0.510443,0.252517 0.404498,0.232313 0.847544,0.444442 0.443028,0.21209 0.471915,0.222201 0.924584,0.48483 0.45267,0.262608 0.471934,0.282812 0.886074,0.565624 0.41414,0.282832 0.770487,0.48485 0.770487,0.48485 z"
       id="path2808"
       style="font-style:oblique;font-variant:normal;font-weight:normal;font-stretch:normal;font-size:18px;line-height:100%;font-family:'Bitstream Vera Sans';text-align:start;text-anchor:start;fill:#ffffff;fill-opacity:1;fill-rule:evenodd;stroke:#ffffff;stroke-width:2.69225502;stroke-linecap:butt;stroke-linejoin:miter;stroke-miterlimit:4;stroke-dasharray:none;stroke-opacity:1" />
    <text
       transform="scale(0.97648073,1.0240857)"
       x="31.635382"
       y="37.610378"
       id="text1534"
       xml:space="preserve"
       style="font-style:oblique;font-variant:normal;font-weight:normal;font-stretch:normal;font-size:35.05565643px;line-height:0%;font-family:'Bitstream Vera Sans';text-align:start;text-anchor:start;fill:#ffffff;fill-opacity:1;stroke:none;stroke-width:1.94753647"><tspan
         style="fill:#ffffff;fill-opacity:1;stroke-width:1.94753647"
         x="31.635382"
         y="37.610378"
         id="tspan1536">Im</tspan></text>
    <text
       transform="scale(0.97648073,1.0240857)"
       x="298.50394"
       y="344.46204"
       id="text1538"
       xml:space="preserve"
       style="font-style:oblique;font-variant:normal;font-weight:normal;font-stretch:normal;font-size:35.05565643px;line-height:0%;font-family:'Bitstream Vera Sans';text-align:start;text-anchor:start;fill:#ffffff;fill-opacity:1;stroke:none;stroke-width:1.94753647;stroke-opacity:1"><tspan
         style="fill:#ffffff;fill-opacity:1;stroke:none;stroke-width:1.94753647;stroke-opacity:1"
         x="298.50394"
         y="344.46204"
         id="tspan1540">Re</tspan></text>
    <path
       inkscape:connector-curvature="0"
       d="m 199.49297,120.38404 a 8.3585707,8.3881088 0 1 1 -16.71714,0 8.3585707,8.3881088 0 1 1 16.71714,0 z"
       id="path2496"
       style="font-style:oblique;font-variant:normal;font-weight:normal;font-stretch:normal;font-size:39.94110107px;line-height:100%;font-family:'Bitstream Vera Sans';text-align:start;text-anchor:start;fill:#ff0000;fill-opacity:1;fill-rule:evenodd;stroke:#ff0000;stroke-width:1.94753647;stroke-opacity:1" />
    <path
       inkscape:connector-curvature="0"
       d="M 84.427387,289.82471 A 53.849086,56.474316 0 0 1 108.6455,336.94004"
       id="path4084"
       style="fill:none;stroke:#ff0000;stroke-width:4.86884117;stroke-linecap:round;stroke-linejoin:round;stroke-miterlimit:4;stroke-dasharray:none;stroke-opacity:1" />
    <text
       transform="scale(0.97648073,1.0240857)"
       x="21.73509"
       y="366.52182"
       id="text2502"
       xml:space="preserve"
       style="font-style:oblique;font-variant:normal;font-weight:normal;font-stretch:normal;font-size:35.05565643px;line-height:0%;font-family:'Bitstream Vera Sans';-inkscape-font-specification:'Bitstream Vera Sans Oblique';text-align:start;writing-mode:lr-tb;text-anchor:start;fill:#000000;fill-opacity:1;stroke:none;stroke-width:1.94753647"><tspan
         style="stroke-width:1.94753647"
         x="21.73509"
         y="366.52182"
         id="tspan2504">0</tspan></text>
    <path
       inkscape:connector-curvature="0"
       d="M 51.285272,339.09315 C 184.68415,129.88144 184.68415,129.88144 184.68415,129.88144"
       id="path2398"
       style="font-style:oblique;font-variant:normal;font-weight:normal;font-stretch:normal;font-size:18px;line-height:100%;font-family:'Bitstream Vera Sans';text-align:start;text-anchor:start;fill:none;fill-opacity:1;fill-rule:evenodd;stroke:#0064c8;stroke-width:4.86884117;stroke-linecap:round;stroke-linejoin:miter;stroke-miterlimit:4;stroke-dasharray:none;stroke-opacity:1" />
    <path
       inkscape:connector-curvature="0"
       d="M 51.645917,392.43651 52.5976,65.435782"
       id="path2868"
       style="font-style:oblique;font-variant:normal;font-weight:normal;font-stretch:normal;font-size:18px;line-height:100%;font-family:'Bitstream Vera Sans';text-align:start;text-anchor:start;fill:none;stroke:#ffffff;stroke-width:3.40803528;stroke-linecap:butt;stroke-linejoin:miter;stroke-miterlimit:4;stroke-dasharray:none;stroke-opacity:1" />
    <path
       inkscape:connector-curvature="0"
       d="m 188.91553,123.60997 -21.46121,16.5511 c 0,0 0.4774,0.002 0.85883,9.9e-4 0.38141,-8.4e-4 0.22103,-0.0254 0.66682,-0.004 0.44581,0.021 0.69522,0.0437 1.11637,0.0884 0.42116,0.0447 0.27024,0.0362 0.56823,0.0904 0.29803,0.0542 0.25695,0.0574 0.62379,0.12635 0.36678,0.069 0.43753,0.0652 0.84347,0.14962 0.40598,0.0845 0.35043,0.0485 0.78032,0.18804 0.42987,0.13955 0.52958,0.21398 0.93923,0.37017 0.40964,0.15618 0.31689,0.0863 0.6994,0.25453 0.38249,0.16837 0.42223,0.21391 0.83054,0.41879 0.40835,0.20485 0.43997,0.18569 0.80281,0.40076 0.36288,0.21509 0.28521,0.21435 0.64865,0.45954 0.36345,0.24522 0.48339,0.30304 0.8052,0.52127 0.32181,0.21825 0.24544,0.16881 0.48206,0.35172 0.2366,0.18289 0.20187,0.16042 0.46433,0.37987 0.26247,0.21945 0.24355,0.18741 0.58546,0.49793 0.34191,0.31053 0.52993,0.46199 0.78222,0.74423 0.25225,0.28221 0.59036,0.62991 0.9914,1.15713 0.40103,0.52715 0.35556,0.53738 0.61273,0.95162 0.25718,0.41426 0.18966,0.35075 0.41599,0.70537 0.22631,0.3546 0.2427,0.37511 0.4538,0.76946 0.2111,0.39433 0.21614,0.41738 0.39062,0.80784 0.17445,0.39046 0.34272,0.69755 0.34272,0.69755 z"
       id="path3369"
       style="font-style:oblique;font-variant:normal;font-weight:normal;font-stretch:normal;font-size:18px;line-height:100%;font-family:'Bitstream Vera Sans';text-align:start;text-anchor:start;fill:#0064c8;fill-opacity:1;fill-rule:evenodd;stroke:#0064c8;stroke-width:3.40818882;stroke-linecap:butt;stroke-linejoin:miter;stroke-miterlimit:4;stroke-dasharray:none;stroke-opacity:1" />
    <path
       inkscape:connector-curvature="0"
       d="m 280.191,338.48867 -29.58701,-11.43401 c 0,0 0.29857,0.49492 0.53935,0.88886 0.24079,0.39393 0.16374,0.21211 0.42378,0.68685 0.26004,0.47474 0.39487,0.74746 0.61639,1.21208 0.22151,0.46463 0.13483,0.30302 0.26966,0.64644 0.13484,0.34343 0.10593,0.30304 0.26969,0.72726 0.16374,0.42424 0.21187,0.49494 0.38525,0.96968 0.17344,0.47473 0.17344,0.39392 0.3082,0.92927 0.13483,0.53533 0.12513,0.68684 0.23113,1.21208 0.10593,0.52524 0.11563,0.38383 0.19263,0.88887 0.077,0.50503 0.0578,0.57573 0.11562,1.13126 0.0578,0.55556 0.0962,0.57576 0.11563,1.09089 0.0192,0.51514 -0.0289,0.43433 -0.0386,0.96967 -0.01,0.53533 0.01,0.69694 0,1.17168 -0.01,0.47474 -0.01,0.36363 -0.0386,0.72725 -0.0289,0.36363 -0.0289,0.31313 -0.077,0.72726 -0.0481,0.41413 -0.0289,0.37372 -0.11563,0.92927 -0.0867,0.55553 -0.11562,0.84846 -0.23115,1.29288 -0.11563,0.44444 -0.24078,1.02018 -0.50084,1.77773 -0.26003,0.75757 -0.29855,0.71716 -0.53931,1.25249 -0.2408,0.53535 -0.22154,0.42424 -0.4238,0.88886 -0.20224,0.46465 -0.21188,0.49494 -0.4623,0.96968 -0.2504,0.47474 -0.26966,0.49494 -0.53933,0.92927 -0.26968,0.43433 -0.46229,0.80805 -0.46229,0.80805 l 29.54846,-11.39362 z"
       id="path4342"
       style="font-style:oblique;font-variant:normal;font-weight:normal;font-stretch:normal;font-size:18px;line-height:100%;font-family:'Bitstream Vera Sans';text-align:start;text-anchor:start;fill:#ffffff;fill-opacity:1;fill-rule:evenodd;stroke:#ffffff;stroke-width:2.69225502;stroke-linecap:butt;stroke-linejoin:miter;stroke-miterlimit:4;stroke-dasharray:none;stroke-opacity:1" />
    <path
       inkscape:connector-curvature="0"
       d="M 2.0273952,339.33098 H 261.65539"
       id="path2870"
       style="font-style:oblique;font-variant:normal;font-weight:normal;font-stretch:normal;font-size:18px;line-height:100%;font-family:'Bitstream Vera Sans';text-align:start;text-anchor:start;fill:#ffffff;fill-opacity:1;stroke:#ffffff;stroke-width:3.40818882;stroke-linecap:butt;stroke-linejoin:miter;stroke-miterlimit:4;stroke-dasharray:none;stroke-opacity:1" />
    <text
       transform="scale(0.97648073,1.0240857)"
       x="116.97012"
       y="298.82294"
       id="text4090"
       xml:space="preserve"
       style="font-style:normal;font-variant:normal;font-weight:normal;font-stretch:normal;font-size:35.0560006px;line-height:0%;font-family:'Asana Math';-inkscape-font-specification:'Asana Math, Normal';text-align:start;writing-mode:lr;text-anchor:start;fill:#ff0000;fill-opacity:1;stroke:#ff0000;stroke-width:1.94753647;font-variant-ligatures:normal;font-variant-caps:normal;font-variant-numeric:normal;font-feature-settings:normal;stroke-opacity:1;"><tspan
         x="116.97012"
         y="298.82294"
         id="tspan4092"
         style="font-style:normal;font-variant:normal;font-weight:normal;font-stretch:normal;font-size:35.0560006px;line-height:125%;font-family:'Asana Math';-inkscape-font-specification:'Asana Math, Normal';text-align:start;writing-mode:lr;text-anchor:start;fill:#ff0000;fill-opacity:1;stroke-width:1.94753647;font-variant-ligatures:normal;font-variant-caps:normal;font-variant-numeric:normal;font-feature-settings:normal;stroke:#ff0000;stroke-opacity:1;">φ</tspan></text>
    <path
       inkscape:connector-curvature="0"
       d="M 24.593116,309.44005 155.65161,104.1064"
       id="path4110"
       style="fill:#f29664;fill-opacity:1;fill-rule:evenodd;stroke:#fa8535;stroke-width:3.72676492;stroke-linecap:butt;stroke-linejoin:miter;stroke-miterlimit:4;stroke-dasharray:none;stroke-opacity:1;marker-start:url(#marker2465U);marker-end:url(#Arrow2Mendw)" />
    <rect
       width="40.410202"
       height="41.497345"
       x="72.125107"
       y="184.60275"
       id="rect4112"
       style="fill:none;fill-opacity:1;fill-rule:nonzero;stroke:none;stroke-width:1.94753647" />
    <text
       transform="scale(0.97648073,1.0240857)"
       x="98.223831"
       y="214.55005"
       id="text4102"
       xml:space="preserve"
       style="font-style:oblique;font-variant:normal;font-weight:normal;font-stretch:normal;font-size:35.05565643px;line-height:0%;font-family:'Bitstream Vera Sans';-inkscape-font-specification:'Bitstream Vera Sans Oblique';text-align:start;writing-mode:lr-tb;text-anchor:start;fill:#f29664;fill-opacity:1;stroke:none;stroke-width:1.94753647"><tspan
         x="98.223831"
         y="214.55005"
         id="tspan4104"
         style="font-style:oblique;font-variant:normal;font-weight:normal;font-stretch:normal;font-size:35.05565643px;line-height:125%;font-family:'Bitstream Vera Sans';-inkscape-font-specification:'Bitstream Vera Sans Oblique';text-align:start;writing-mode:lr-tb;text-anchor:start;fill:#f29664;fill-opacity:1;stroke:none;stroke-width:1.94753647">r</tspan></text>
    <path
       inkscape:connector-curvature="0"
       d="M 174.24324,111.71329 144.15189,87.643361"
       id="path13373"
       style="fill:#f29664;fill-opacity:1;fill-rule:evenodd;stroke:#fa8535;stroke-width:3.78065515;stroke-linecap:butt;stroke-linejoin:miter;stroke-miterlimit:4;stroke-dasharray:none;stroke-opacity:1" />
    <path
       inkscape:connector-curvature="0"
       d="M 41.616164,329.25595 6.6598047,301.29452"
       id="path13375"
       style="fill:#f29664;fill-opacity:1;fill-rule:evenodd;stroke:#fa8535;stroke-width:3.78065515;stroke-linecap:butt;stroke-linejoin:miter;stroke-miterlimit:4;stroke-dasharray:none;stroke-opacity:1" />
    <path
       inkscape:connector-curvature="0"
       style="font-style:oblique;font-variant:normal;font-weight:normal;font-stretch:normal;font-size:18px;line-height:100%;font-family:'Bitstream Vera Sans';text-align:start;text-anchor:start;fill:#ffffff;fill-opacity:1;stroke:#ffffff;stroke-width:3.40818882;stroke-linecap:butt;stroke-linejoin:miter;stroke-miterlimit:4;stroke-dasharray:3.40818873, 10.22456624;stroke-dashoffset:0;stroke-opacity:1"
       id="path2837"
       d="m 190.15807,332.50177 0.95168,-208.7961" />
    <path
       inkscape:connector-curvature="0"
       style="font-style:oblique;font-variant:normal;font-weight:normal;font-stretch:normal;font-size:18px;line-height:100%;font-family:'Bitstream Vera Sans';text-align:start;text-anchor:start;fill:#ffffff;fill-opacity:1;stroke:#ffffff;stroke-width:3.40818906;stroke-linecap:butt;stroke-linejoin:miter;stroke-miterlimit:4;stroke-dasharray:3.40818899, 10.22456698;stroke-dashoffset:0;stroke-opacity:1"
       id="path3623"
       d="M 56.563719,119.94211 H 180.13221" />
    <text
       transform="scale(0.97648073,1.0240857)"
       style="font-style:oblique;font-variant:normal;font-weight:normal;font-stretch:normal;font-size:35.05565643px;line-height:0%;font-family:'Bitstream Vera Sans';-inkscape-font-specification:'Bitstream Vera Sans, Oblique';font-variant-ligatures:normal;font-variant-caps:normal;font-variant-numeric:normal;font-feature-settings:normal;text-align:start;writing-mode:lr-tb;text-anchor:start;fill:#ffffff;fill-opacity:1;stroke:none;stroke-width:1.94753647;stroke-opacity:1"
       xml:space="preserve"
       id="text3625"
       y="362.34473"
       x="182.09738"><tspan
         style="stroke-width:1.94753647"
         y="362.34473"
         x="182.09738"
         id="tspan943"
         sodipodi:role="line">a</tspan></text>
    <text
       transform="scale(0.97648073,1.0240857)"
       x="23.591845"
       y="126.61853"
       id="text3629"
       xml:space="preserve"
       style="font-style:oblique;font-variant:normal;font-weight:normal;font-stretch:normal;font-size:23.37043762px;line-height:0%;font-family:'Bitstream Vera Sans';-inkscape-font-specification:'Bitstream Vera Sans Oblique';text-align:start;writing-mode:lr-tb;text-anchor:start;fill:#ffffff;fill-opacity:1;stroke:none;stroke-width:1.94753647"><tspan
         style="font-size:35.05565643px;line-height:1;fill:#ffffff;fill-opacity:1;stroke-width:1.94753647"
         y="126.61853"
         x="23.591845"
         id="tspan3633"
         sodipodi:role="line">b</tspan></text>
  </g>
</svg>
