<svg width="366" height="394" version="1.0" viewBox="0 0 366 394" xmlns="http://www.w3.org/2000/svg"><defs><marker id="Arrow2Mendw" overflow="visible" orient="auto"><path transform="scale(-.6)" d="m8.7186 4.0337-10.926-4.0177 10.926-4.0177c-1.7455 2.3721-1.7354 5.6175-6e-7 8.0354z" fill="#fa8535" fill-rule="evenodd" stroke="#fa8535" stroke-linejoin="round" stroke-width=".625"/></marker><marker id="marker2465U" overflow="visible" orient="auto"><path transform="scale(.6)" d="m8.7186 4.0337-10.926-4.0177 10.926-4.0177c-1.7455 2.3721-1.7354 5.6175-6e-7 8.0354z" fill="#fa8535" fill-rule="evenodd" stroke="#fa8535" stroke-linejoin="round" stroke-width=".625"/></marker></defs><path d="m52.338 50.647-10.903 31.029s0.47193-0.31313 0.84754-0.56564c0.37561-0.25254 0.20225-0.1717 0.65492-0.44444 0.45267-0.27272 0.71271-0.41413 1.1557-0.64644 0.44305-0.23231 0.28893-0.14141 0.61641-0.28281 0.32746-0.14141 0.28893-0.11111 0.69345-0.28281 0.4045-0.17172 0.47192-0.22222 0.92458-0.40405 0.45267-0.18181 0.37561-0.18181 0.88607-0.32322 0.51044-0.14139 0.65492-0.13131 1.1557-0.2424 0.50082-0.11111 0.36599-0.12122 0.84754-0.20202 0.48156-0.08082 0.54897-0.06061 1.0787-0.12122 0.52971-0.06059 0.54897-0.101 1.0402-0.1212 0.4912-0.0202 0.41416 0.03032 0.9246 0.04041 0.51044 0.01017 0.66456-0.01017 1.1172 0 0.45267 0.01017 0.34672 0.01017 0.69345 0.04041 0.34672 0.0303 0.29857 0.0303 0.69345 0.08079 0.39488 0.05052 0.35636 0.0303 0.88607 0.1212 0.52971 0.09091 0.80902 0.12124 1.2328 0.24242 0.42376 0.1212 0.97274 0.25252 1.6951 0.52526 0.72234 0.2727 0.68381 0.31311 1.1943 0.56562 0.51044 0.25252 0.4045 0.23231 0.84754 0.44444 0.44303 0.21209 0.47192 0.2222 0.92458 0.48483 0.45267 0.26261 0.47193 0.28281 0.88607 0.56562 0.41414 0.28283 0.77049 0.48485 0.77049 0.48485z" fill="black" fill-rule="evenodd" stroke="black" stroke-width="2.6923"/><text transform="scale(.97648 1.0241)" x="31.635382" y="37.610378" fill="black" font-family="'Bitstream Vera Sans'" font-size="35.056px" font-style="oblique" stroke-width="1.9475" style="line-height:0%" xml:space="preserve"><tspan x="31.635382" y="37.610378" fill="black" stroke-width="1.9475">Im</tspan></text><text transform="scale(.97648 1.0241)" x="298.50394" y="344.46204" fill="black" font-family="'Bitstream Vera Sans'" font-size="35.056px" font-style="oblique" stroke-width="1.9475" style="line-height:0%" xml:space="preserve"><tspan x="298.50394" y="344.46204" fill="black" stroke-width="1.9475">Re</tspan></text><path d="m199.49 120.38a8.3586 8.3881 0 1 1-16.717 0 8.3586 8.3881 0 1 1 16.717 0z" fill="#f00" fill-rule="evenodd" stroke="#f00" stroke-width="1.9475"/><path d="m84.427 289.82a53.849 56.474 0 0 1 24.218 47.115" fill="none" stroke="#f00" stroke-linecap="round" stroke-linejoin="round" stroke-width="4.8688"/><text transform="scale(.97648 1.0241)" x="21.73509" y="366.52182" fill="#000000" font-family="'Bitstream Vera Sans'" font-size="35.056px" font-style="oblique" stroke-width="1.9475" style="line-height:0%" xml:space="preserve"><tspan x="21.73509" y="366.52182" stroke-width="1.9475">0</tspan></text><path d="m51.285 339.09 133.4-209.21" fill="none" stroke="#0064c8" stroke-linecap="round" stroke-width="4.8688"/><path d="m51.646 392.44 0.95168-327" fill="none" stroke="black" stroke-width="3.408"/><path d="m188.92 123.61-21.461 16.551s0.4774 2e-3 0.85883 9.9e-4c0.38141-8.4e-4 0.22103-0.0254 0.66682-4e-3 0.44581 0.021 0.69522 0.0437 1.1164 0.0884 0.42116 0.0447 0.27024 0.0362 0.56823 0.0904 0.29803 0.0542 0.25695 0.0574 0.62379 0.12635 0.36678 0.069 0.43753 0.0652 0.84347 0.14962 0.40598 0.0845 0.35043 0.0485 0.78032 0.18804 0.42987 0.13955 0.52958 0.21398 0.93923 0.37017 0.40964 0.15618 0.31689 0.0863 0.6994 0.25453 0.38249 0.16837 0.42223 0.21391 0.83054 0.41879 0.40835 0.20485 0.43997 0.18569 0.80281 0.40076 0.36288 0.21509 0.28521 0.21435 0.64865 0.45954 0.36345 0.24522 0.48339 0.30304 0.8052 0.52127 0.32181 0.21825 0.24544 0.16881 0.48206 0.35172 0.2366 0.18289 0.20187 0.16042 0.46433 0.37987 0.26247 0.21945 0.24355 0.18741 0.58546 0.49793 0.34191 0.31053 0.52993 0.46199 0.78222 0.74423 0.25225 0.28221 0.59036 0.62991 0.9914 1.1571 0.40103 0.52715 0.35556 0.53738 0.61273 0.95162 0.25718 0.41426 0.18966 0.35075 0.41599 0.70537 0.22631 0.3546 0.2427 0.37511 0.4538 0.76946 0.2111 0.39433 0.21614 0.41738 0.39062 0.80784 0.17445 0.39046 0.34272 0.69755 0.34272 0.69755z" fill="#0064c8" fill-rule="evenodd" stroke="#0064c8" stroke-width="3.4082"/><path d="m280.19 338.49-29.587-11.434s0.29857 0.49492 0.53935 0.88886c0.24079 0.39393 0.16374 0.21211 0.42378 0.68685s0.39487 0.74746 0.61639 1.2121c0.22151 0.46463 0.13483 0.30302 0.26966 0.64644 0.13484 0.34343 0.10593 0.30304 0.26969 0.72726 0.16374 0.42424 0.21187 0.49494 0.38525 0.96968 0.17344 0.47473 0.17344 0.39392 0.3082 0.92927 0.13483 0.53533 0.12513 0.68684 0.23113 1.2121 0.10593 0.52524 0.11563 0.38383 0.19263 0.88887 0.077 0.50503 0.0578 0.57573 0.11562 1.1313 0.0578 0.55556 0.0962 0.57576 0.11563 1.0909 0.0192 0.51514-0.0289 0.43433-0.0386 0.96967-0.01 0.53533 0.01 0.69694 0 1.1717s-0.01 0.36363-0.0386 0.72725c-0.0289 0.36363-0.0289 0.31313-0.077 0.72726s-0.0289 0.37372-0.11563 0.92927c-0.0867 0.55553-0.11562 0.84846-0.23115 1.2929-0.11563 0.44444-0.24078 1.0202-0.50084 1.7777-0.26003 0.75757-0.29855 0.71716-0.53931 1.2525-0.2408 0.53535-0.22154 0.42424-0.4238 0.88886-0.20224 0.46465-0.21188 0.49494-0.4623 0.96968-0.2504 0.47474-0.26966 0.49494-0.53933 0.92927-0.26968 0.43433-0.46229 0.80805-0.46229 0.80805l29.548-11.394z" fill="black" fill-rule="evenodd" stroke="black" stroke-width="2.6923"/><path d="m2.0274 339.33h259.63" fill="black" stroke="black" stroke-width="3.4082"/><text transform="scale(.97648 1.0241)" x="116.97012" y="298.82294" fill="#ff0000" font-family="'Asana Math'" font-size="35.056px" stroke="#ff0000" stroke-width="1.9475" writing-mode="lr" style="font-feature-settings:normal;font-variant-caps:normal;font-variant-ligatures:normal;font-variant-numeric:normal;line-height:0%" xml:space="preserve"><tspan x="116.97012" y="298.82294" fill="#ff0000" font-family="'Asana Math'" font-size="35.056px" stroke="#ff0000" stroke-width="1.9475" writing-mode="lr" style="font-feature-settings:normal;font-variant-caps:normal;font-variant-ligatures:normal;font-variant-numeric:normal;line-height:125%">φ</tspan></text><path d="m24.593 309.44 131.06-205.33" fill="#f29664" fill-rule="evenodd" marker-end="url(#Arrow2Mendw)" marker-start="url(#marker2465U)" stroke="#fa8535" stroke-width="3.7268"/><rect x="72.125" y="184.6" width="40.41" height="41.497" fill="none"/><text transform="scale(.97648 1.0241)" x="98.223831" y="214.55005" fill="#f29664" font-family="'Bitstream Vera Sans'" font-size="35.056px" font-style="oblique" stroke-width="1.9475" style="line-height:0%" xml:space="preserve"><tspan x="98.223831" y="214.55005" fill="#f29664" font-family="'Bitstream Vera Sans'" font-size="35.056px" font-style="oblique" stroke-width="1.9475" style="line-height:125%">r</tspan></text><path d="m174.24 111.71-30.091-24.07" fill="#f29664" fill-rule="evenodd" stroke="#fa8535" stroke-width="3.7807"/><path d="m41.616 329.26-34.956-27.961" fill="#f29664" fill-rule="evenodd" stroke="#fa8535" stroke-width="3.7807"/><path d="m190.16 332.5 0.95168-208.8" fill="black" stroke="black" stroke-dasharray="3.40818873, 10.22456624" stroke-width="3.4082"/><path d="m56.564 119.94h123.57" fill="black" stroke="black" stroke-dasharray="3.40818899, 10.22456698" stroke-width="3.4082"/><text transform="scale(.97648 1.0241)" x="182.09738" y="362.34473" fill="black" font-family="'Bitstream Vera Sans'" font-size="35.056px" font-style="oblique" stroke-width="1.9475" style="font-feature-settings:normal;font-variant-caps:normal;font-variant-ligatures:normal;font-variant-numeric:normal;line-height:0%" xml:space="preserve"><tspan x="182.09738" y="362.34473" stroke-width="1.9475">a</tspan></text><text transform="scale(.97648 1.0241)" x="23.591845" y="126.61853" fill="black" font-family="'Bitstream Vera Sans'" font-size="23.37px" font-style="oblique" stroke-width="1.9475" style="line-height:0%" xml:space="preserve"><tspan x="23.591845" y="126.61853" fill="black" font-size="35.056px" stroke-width="1.9475" style="line-height:1">b</tspan></text></svg>
